<svg xmlns="http://www.w3.org/2000/svg" viewBox="271.583 -419.411 344.294 450.441"><defs><linearGradient id="paint0_linear_398_407" x1="0.999023" y1="0.204712" x2="0.999023" y2="450.646" gradientUnits="userSpaceOnUse"><stop stop-color="#00C199"/><stop offset="0.4375" stop-color="#2D6C8C"/><stop offset="0.7448" stop-color="#EC4358"/><stop offset="1" stop-color="#F08700"/></linearGradient></defs><path d="M152.451 107.613V215.077L149.509 216.602C143.897 219.543 138.613 226.351 136.87 233.051C135.889 236.591 135.889 244.271 136.87 247.811C138.776 255.001 144.279 261.7 151.034 265.023C154.575 266.766 154.63 266.82 154.63 269.053C154.63 274.337 158.116 280.927 163.619 286.047C167.596 289.805 171.464 292.147 177.075 294.217L181.052 295.633L210.198 295.851C229.103 295.96 241.142 295.797 244.52 295.415C264.133 293.182 283.854 285.285 299.98 273.247C305.155 269.38 315.452 259.467 319.81 254.184C332.831 238.28 341.547 218.181 344.435 197.484C345.579 189.423 345.579 173.736 344.435 165.675C341.547 144.978 332.831 124.879 319.81 108.975C315.452 103.692 305.155 93.7789 299.98 89.9117C287.831 80.8702 274.484 74.4431 260.047 70.7394C247.19 67.4169 243.812 67.1446 213.086 66.8178L185.138 66.491V77.7656V88.9858H206.276C238.419 89.0403 247.517 89.9117 260.319 94.2691C291.372 104.781 314.362 130.871 321.445 163.605C322.48 168.616 322.643 170.904 322.643 181.58C322.643 192.255 322.48 194.543 321.445 199.554C313.055 238.225 282.764 267.038 244.193 272.812C240.325 273.411 232.208 273.574 211.56 273.683C184.484 273.738 184.048 273.738 181.651 272.594C178.873 271.232 177.511 269.435 177.13 266.548C176.857 264.696 177.021 264.424 178.71 263.389C181.488 261.646 186.01 256.689 187.426 253.803L188.625 251.297H212.977C235.368 251.297 237.874 251.188 243.158 250.153C263.806 246.177 280.749 233.595 291.154 214.478C300.688 197.048 302.213 176.187 295.458 157.287C294.477 154.401 292.353 149.825 290.827 147.102C280.095 127.712 263.206 115.511 241.524 111.535C237.601 110.827 231.609 110.609 210.907 110.391L185.138 110.119V121.339V132.559H205.786C233.352 132.559 240.107 133.322 249.096 137.407C261.899 143.18 271.978 155.653 275.9 170.468C277.262 175.643 277.262 186.427 275.9 191.601C271.978 206.416 261.899 218.889 249.151 224.663C247.244 225.534 243.921 226.733 241.687 227.441C237.874 228.585 236.621 228.639 213.14 228.857L188.57 229.02L186.936 226.134C184.92 222.593 180.126 217.963 176.748 216.329L174.242 215.131V107.668V0.204705H163.346H152.451V107.613ZM167.596 233.323C170.047 234.848 171.518 237.463 171.518 240.404C171.518 243.345 170.047 245.959 167.596 247.485C163.837 249.772 158.552 248.41 156.264 244.652C153.976 240.894 155.338 235.611 159.097 233.323C160.187 232.67 161.876 232.234 163.346 232.234C164.817 232.234 166.506 232.67 167.596 233.323ZM11.7314 77.4388C5.84765 83.3212 0.999023 88.3867 0.999023 88.6045C0.999023 88.8224 32.5968 88.9858 71.2769 88.9858H141.555V77.8201V66.6544H82.0093H22.5182L11.7314 77.4388ZM97.9172 95.195C91.1073 97.1014 84.3519 102.657 81.1921 108.975L79.5033 112.243L76.3435 112.57C74.2733 112.788 71.7128 113.659 68.7709 115.075C58.9647 119.977 52.0458 130.762 50.5749 143.453C50.248 146.339 50.0301 191.111 50.0301 261.374V374.665L60.9259 385.558L71.8217 396.452L71.9307 270.361C72.0941 152.549 72.1486 144.106 73.0203 141.546C73.9464 138.823 75.8532 136.535 78.1958 135.337C80.2115 134.302 81.3011 134.629 82.4451 136.699C83.8616 139.313 89.5819 144.597 92.4148 145.849L94.7029 146.884V298.792V450.646H105.599H116.495V298.792V146.993L119.491 145.414C122.978 143.616 128.316 138.169 129.787 134.847L130.822 132.559H136.216H141.555V121.666V110.773H136.27H130.931L129.406 107.831C126.464 102.221 119.654 96.938 112.953 95.195C109.576 94.2691 101.295 94.2691 97.9172 95.195ZM109.848 114.585C116.93 118.888 113.88 129.836 105.599 129.836C100.968 129.836 97.4269 126.296 97.4269 121.666C97.4269 117.036 100.968 113.496 105.599 113.496C107.07 113.496 108.758 113.932 109.848 114.585Z" fill="url(#paint0_linear_398_407)" transform="matrix(1, 0, 0, 1, 270.584259, -419.615997)"/></svg>